PathFileType	4	(X/Y/Z)	D:\TRACE\spotREDO_2-26-24\spot_justArm_Motion_1_1-v60.trc
DataRate	CameraRate	NumFrames	NumMarkers	Units	OrigDataRate	OrigDataStartFrame	OrigNumFrames
100.00	100.00	      24	9	mm	100.00	2626	      7000
Frame#	Time	front left toe			Front right toe			aft left toe			aft right toe			Arm			FL body			FR body			AL Body			AR Body			
		X1	Y1	Z1	X2	Y2	Z2	X3	Y3	Z3	X4	Y4	Z4	X5	Y5	Z5	X6	Y6	Z6	X7	Y7	Z7	X8	Y8	Z8	X9	Y9	Z9	

2626	26.250	-391.99664	21.59521	-27.51544	41.07084	29.53550	-148.28551	-262.59155	-3.57593	558.61859	175.11122	6.88023	451.69455	-90.75266	699.61517	-754.59448	-284.56656	556.80658	-121.79208	-132.20264	561.36359	-158.10577	-88.79829	535.20715	739.57648	57.85887	535.70062	707.68030	
2627	26.260	-391.64990	21.56544	-27.61959	41.61348	29.32049	-148.73701	-262.30280	-3.54043	558.55151	175.21075	6.89346	451.70813	-90.91650	700.54517	-754.80865	-284.64175	556.76556	-121.82964	-132.38524	561.38751	-158.12091	-88.95616	535.12982	739.56891	57.22502	535.57129	707.69092	
2628	26.270	-391.45428	21.56769	-27.59024	41.78567	29.62622	-148.62979	-261.74167	-3.54576	558.69519	175.65558	7.08817	451.76642	-91.38029	701.60626	-754.83063	-284.69153	556.86621	-121.83772	-132.56731	561.46124	-158.12256	-88.95317	534.73663	739.30011	57.01331	535.43787	707.76202	
2629	26.280	-391.13757	21.43654	-27.62533	42.20285	29.58536	-148.75743	-261.09744	-3.74251	558.72125	176.08763	7.14883	451.71457	-91.16383	702.30981	-754.61584	-284.79434	556.99237	-121.89455	-132.68962	561.54498	-158.10948	-89.01856	534.48322	739.30310	56.93763	535.25403	707.71283	
2630	26.290	-390.86374	21.51719	-27.63845	42.57207	29.94314	-148.80695	-260.71313	-3.63136	558.62732	176.36971	7.17536	451.69565	-91.43015	703.51398	-754.65973	-284.89053	557.13031	-121.94210	-132.73035	561.61218	-158.10114	-89.03417	534.30688	739.33417	56.77272	535.14972	707.67084	
2631	26.300	-390.35474	21.50003	-27.61972	43.73068	30.48740	-148.47707	-260.43927	-3.56976	558.59552	176.47176	7.13093	451.63062	-91.78719	704.21283	-754.57239	-284.96884	557.29816	-121.99590	-132.79626	561.72125	-158.15320	-89.09354	534.19196	739.30994	56.61268	534.98352	707.64001	
2632	26.310	-389.78925	21.43812	-27.62464	43.85759	30.38266	-148.39865	-260.07578	-3.40131	558.63690	177.24788	7.39852	451.64511	-92.00342	705.12207	-754.65149	-285.01306	557.52728	-122.05933	-132.85796	561.90503	-158.19176	-89.11198	534.09967	739.30707	56.62685	534.80463	707.58331	
2633	26.320	-389.37527	21.38027	-27.66807	44.39816	30.36415	-148.42799	-259.63513	-3.01303	558.66614	178.04944	7.60626	451.62485	-92.25829	705.95532	-754.72772	-285.06302	557.84418	-122.06142	-132.88037	562.16315	-158.17430	-89.22816	533.96014	739.39264	56.64581	534.68793	707.58929	
2634	26.330	-388.95016	21.43467	-28.24320	45.01922	30.42019	-148.51913	-259.28821	-2.89384	558.69427	178.35587	7.75965	451.61093	-92.56561	706.52417	-754.59863	-285.13980	558.04590	-121.96893	-132.91833	562.41779	-158.22678	-89.16746	533.89038	739.40088	56.64734	534.61450	707.56903	
2635	26.340	-388.51462	21.37245	-28.27124	45.54107	30.26059	-148.67050	-258.47943	-3.13170	558.62030	178.41444	7.74737	451.51813	-92.61398	707.13037	-754.62964	-285.11429	558.12988	-121.96760	-132.79913	562.59149	-158.12497	-89.09212	533.81140	739.36023	56.79593	534.61285	707.53363	
2636	26.350	-387.89261	21.30605	-28.13791	45.16494	29.72969	-148.71608	-258.18027	-3.04596	558.62512	178.78320	7.84938	451.51965	-92.69938	707.66669	-754.71899	-285.54663	558.46954	-122.41834	-132.46048	562.67175	-157.75688	-89.00921	533.76093	739.36224	56.93998	534.67017	707.50708	
2637	26.360	-387.47845	21.35998	-28.00614	45.69262	29.70079	-148.93146	-257.70398	-2.85126	558.61914	179.57504	8.07556	451.47241	-92.72301	708.01154	-754.60345	-285.60547	558.62903	-122.45798	-132.38632	562.85803	-157.76939	-88.92329	533.73590	739.34546	57.06388	534.80048	707.49695	
2638	26.370	-387.16498	21.33779	-28.13774	46.21061	29.50915	-149.14503	-257.19409	-2.69291	558.63989	180.45587	8.44142	451.47977	-92.72641	708.24738	-754.52051	-285.48618	558.73309	-122.43744	-132.38441	562.98340	-157.75346	-88.84068	533.75531	739.35651	56.53830	535.16559	707.64612	
2639	26.380	-386.65988	21.19301	-28.25353	46.97276	29.56450	-149.41684	-256.83105	-2.30853	558.59802	180.93263	8.54649	451.41452	-92.73704	708.40112	-754.53375	-285.35577	558.80066	-122.45518	-132.30417	563.09448	-157.78438	-88.73248	533.71820	739.29498	57.36085	534.92279	707.53973	
2640	26.390	-385.75488	21.00134	-28.24320	47.22796	29.68857	-149.18010	-256.03143	-2.43345	558.65356	181.07954	8.60067	451.27011	-92.74277	708.48352	-754.52393	-285.06381	558.88519	-122.35732	-132.20953	563.22943	-157.79387	-88.49068	533.76410	739.21338	57.46012	534.85199	707.54626	
2641	26.400	-385.29993	21.01703	-28.30400	47.68155	29.33959	-149.34547	-255.35078	-2.37854	558.65381	181.54057	8.81120	451.15274	-92.66933	708.52075	-754.50073	-284.95645	558.94263	-122.33619	-132.05280	563.33655	-157.78372	-88.34393	533.74384	739.17462	57.73084	534.87128	707.53687	
2642	26.410	-384.91479	20.97146	-28.28420	48.20215	29.47670	-149.28578	-255.00706	-2.16756	558.51294	182.36650	9.06747	451.13751	-92.62853	708.48926	-754.50458	-284.51056	558.64429	-121.83722	-131.97174	563.41815	-157.83900	-88.12100	533.76434	739.16736	58.04298	534.85291	707.49420	
2643	26.420	-384.48624	20.82638	-28.18276	49.61735	29.94287	-149.25102	-254.46724	-2.03485	558.55457	183.02025	9.21994	451.08893	-92.61030	708.45764	-754.54346	-284.36926	558.66724	-121.78797	-132.05746	563.56665	-158.13583	-87.90977	533.72791	739.11017	58.30516	534.81744	707.48993	
2644	26.430	-383.75958	20.74499	-28.17515	50.26834	30.09792	-149.09105	-253.84877	-1.99796	558.39685	183.37630	9.16481	451.03821	-92.43970	708.39984	-754.63794	-284.18622	558.72943	-121.79504	-131.93867	563.59875	-158.17001	-87.53963	533.76544	739.07263	58.72196	534.82275	707.46338	
2645	26.440	-383.15729	20.79259	-28.26005	49.89378	29.54929	-149.55542	-253.00885	-1.80324	558.45020	183.94611	9.39202	450.93893	-92.25085	708.31146	-754.67963	-283.95044	558.83521	-121.86532	-131.78273	563.66510	-158.19186	-87.22227	533.83990	739.05811	59.00303	534.89075	707.35925	
2646	26.450	-382.43329	20.62877	-28.26684	50.51616	29.53431	-149.54283	-252.42690	-1.58266	558.50403	184.22571	9.47445	450.85504	-91.94220	708.24927	-754.71436	-283.67957	558.91406	-121.87959	-131.51007	563.71161	-158.18829	-86.92568	533.88690	739.02356	59.12767	534.96997	707.28723	
2647	26.460	-381.79800	20.51458	-28.24855	51.25200	29.41825	-149.51471	-252.05920	-1.18566	558.32892	185.25529	9.80200	450.88342	-91.60028	708.12201	-754.73553	-283.40570	558.97101	-121.87629	-131.25438	563.71661	-158.19289	-86.56360	534.02222	739.02710	59.53960	535.03662	707.26361	
2648	26.470	-381.22617	20.51979	-28.19814	51.76756	29.04230	-149.77290	-251.60814	-0.87535	558.23157	185.72656	9.97224	450.81699	-91.45136	708.07227	-754.84113	-283.07590	558.93665	-121.87626	-131.03993	563.69598	-158.22667	-86.25501	534.12268	739.02643	59.74511	534.51660	706.49963	
2649	26.480	-380.68558	20.45162	-28.47155	52.58973	29.01052	-149.81532	-250.62817	-0.85555	558.27148	186.27808	10.11208	450.73944	-91.14773	707.94580	-754.82074	-282.77972	558.94397	-121.87387	-130.62044	563.71558	-158.29637	-85.98341	534.25684	739.02667	60.37799	534.42529	706.41138	
